<svg width="24" height="24" viewBox="0 0 24 24" fill="none" xmlns="http://www.w3.org/2000/svg">
<path d="M16.8526 1.98242H6.93915C4.20162 1.98242 1.98242 4.20162 1.98242 6.93915V16.8526C1.98242 19.5901 4.20162 21.8093 6.93915 21.8093H16.8526C19.5901 21.8093 21.8093 19.5901 21.8093 16.8526V6.93915C21.8093 4.20162 19.5901 1.98242 16.8526 1.98242Z" stroke="#EAEAEA" stroke-width="1.98269" stroke-linecap="round" stroke-linejoin="round"/>
<path d="M15.8615 11.2724C15.9839 12.0974 15.8429 12.9401 15.4588 13.6804C15.0746 14.4207 14.4668 15.0211 13.7218 15.3961C12.9768 15.7711 12.1325 15.9016 11.309 15.7691C10.4856 15.6366 9.72484 15.2478 9.13507 14.658C8.5453 14.0682 8.15651 13.3075 8.024 12.484C7.89149 11.6606 8.02201 10.8163 8.397 10.0713C8.77199 9.32625 9.37235 8.71844 10.1127 8.33429C10.853 7.95015 11.6956 7.80922 12.5207 7.93157C13.3623 8.05636 14.1414 8.44852 14.743 9.05011C15.3446 9.6517 15.7367 10.4308 15.8615 11.2724Z" stroke="#EAEAEA" stroke-width="1.98269" stroke-linecap="round" stroke-linejoin="round"/>
<path d="M17.3486 6.44336H17.3585" stroke="#EAEAEA" stroke-width="1.98269" stroke-linecap="round" stroke-linejoin="round"/>
</svg>
