<svg width="24" height="24" viewBox="0 0 24 24" fill="none" xmlns="http://www.w3.org/2000/svg">
<path d="M15.8616 7.93164C17.4392 7.93164 18.9521 8.55831 20.0676 9.67379C21.183 10.7893 21.8097 12.3022 21.8097 13.8797V20.8191H17.8443V13.8797C17.8443 13.3539 17.6354 12.8496 17.2636 12.4777C16.8918 12.1059 16.3875 11.897 15.8616 11.897C15.3358 11.897 14.8315 12.1059 14.4597 12.4777C14.0878 12.8496 13.879 13.3539 13.879 13.8797V20.8191H9.91357V13.8797C9.91357 12.3022 10.5402 10.7893 11.6557 9.67379C12.7712 8.55831 14.2841 7.93164 15.8616 7.93164Z" stroke="#EAEAEA" stroke-width="1.98269" stroke-linecap="round" stroke-linejoin="round"/>
<path d="M5.9478 8.92188H1.98242V20.818H5.9478V8.92188Z" stroke="#EAEAEA" stroke-width="1.98269" stroke-linecap="round" stroke-linejoin="round"/>
<path d="M3.96511 5.9478C5.06012 5.9478 5.9478 5.06012 5.9478 3.96511C5.9478 2.8701 5.06012 1.98242 3.96511 1.98242C2.8701 1.98242 1.98242 2.8701 1.98242 3.96511C1.98242 5.06012 2.8701 5.9478 3.96511 5.9478Z" stroke="#EAEAEA" stroke-width="1.98269" stroke-linecap="round" stroke-linejoin="round"/>
</svg>
