<svg width="24" height="24" viewBox="0 0 24 24" fill="none" xmlns="http://www.w3.org/2000/svg">
<path d="M17.3476 7.45925C16.4477 6.62936 15.8878 5.44952 15.8878 4.1597V3.96973H12.7383V14.8682C12.7383 16.1781 11.6784 17.2479 10.3686 17.2479C9.05875 17.2479 7.9989 16.1781 7.9989 14.8682C7.9989 13.5584 9.05875 12.4886 10.3686 12.4886C10.6385 12.4886 10.9085 12.5386 11.1485 12.6185V9.41898C10.8885 9.37899 10.6285 9.35899 10.3686 9.35899C7.32899 9.35899 4.86932 11.8187 4.86932 14.8682C4.86932 17.9178 7.32899 20.3775 10.3686 20.3775C13.4082 20.3775 15.8678 17.9178 15.8678 14.8682V9.77894C16.9877 10.5788 18.3375 11.0288 19.7973 11.0288V7.89919C18.8674 7.89919 17.9975 7.75921 17.3476 7.45925Z" stroke="#EAEAEA" stroke-width="1.98242" stroke-linecap="round" stroke-linejoin="round"/>
</svg>
