<svg width="24" height="24" viewBox="0 0 24 24" fill="none" xmlns="http://www.w3.org/2000/svg">
<path d="M2.47838 16.8546C1.78585 13.5864 1.78585 10.2093 2.47838 6.9411C2.56938 6.60921 2.74519 6.30671 2.98854 6.06337C3.23188 5.82003 3.53437 5.64421 3.86627 5.55322C9.1833 4.67237 14.609 4.67237 19.9261 5.55322C20.258 5.64421 20.5604 5.82003 20.8038 6.06337C21.0471 6.30671 21.223 6.60921 21.3139 6.9411C22.0065 10.2093 22.0065 13.5864 21.3139 16.8546C21.223 17.1864 21.0471 17.4889 20.8038 17.7323C20.5604 17.9756 20.258 18.1514 19.9261 18.2424C14.609 19.1235 9.18328 19.1235 3.86627 18.2424C3.53437 18.1514 3.23188 17.9756 2.98854 17.7323C2.74519 17.4889 2.56938 17.1864 2.47838 16.8546Z" stroke="#EAEAEA" stroke-width="1.98269" stroke-linecap="round" stroke-linejoin="round"/>
<path d="M9.91382 14.8699L14.8705 11.8959L9.91382 8.92188V14.8699Z" stroke="#EAEAEA" stroke-width="1.98269" stroke-linecap="round" stroke-linejoin="round"/>
</svg>
