<svg width="36" height="36" viewBox="0 0 36 36" fill="none" xmlns="http://www.w3.org/2000/svg">
<path d="M18.5199 0.473056L19.9228 15.6051C19.9458 15.8555 20.1445 16.0524 20.3949 16.0772L35.5269 17.4801C36.1577 17.5394 36.1577 18.4606 35.5269 18.5199L20.3949 19.9228C20.1445 19.9457 19.9477 20.1445 19.9228 20.3949L18.5199 35.527C18.4606 36.1577 17.5394 36.1577 17.4801 35.527L16.0772 20.3949C16.0542 20.1445 15.8555 19.9477 15.6051 19.9228L0.473056 18.5199C-0.157685 18.4606 -0.157685 17.5394 0.473056 17.4801L15.6051 16.0772C15.8555 16.0543 16.0523 15.8555 16.0772 15.6051L17.4801 0.473056C17.5394 -0.157685 18.4606 -0.157685 18.5199 0.473056Z" fill="#5293D7"/>
<path d="M15.1971 15.1918C15.739 14.6499 14.6093 12.6416 12.6739 10.7061C10.7384 8.77067 8.73012 7.64097 8.18823 8.18287C7.64633 8.72477 8.77603 10.7331 10.7115 12.6685C12.6469 14.604 14.6552 15.7337 15.1971 15.1918Z" fill="#5293D7"/>
<path d="M12.6739 25.2939C14.6093 23.3584 15.739 21.3501 15.1971 20.8082C14.6552 20.2663 12.6469 21.396 10.7115 23.3315C8.77602 25.2669 7.64633 27.2752 8.18823 27.8171C8.73012 28.359 10.7384 27.2293 12.6739 25.2939Z" fill="#5293D7"/>
<path d="M27.8065 27.8129C28.3484 27.271 27.2187 25.2627 25.2833 23.3272C23.3478 21.3918 21.3395 20.2621 20.7976 20.804C20.2557 21.3459 21.3854 23.3542 23.3209 25.2896C25.2563 27.2251 27.2646 28.3548 27.8065 27.8129Z" fill="#5293D7"/>
<path d="M25.2832 12.6728C27.2187 10.7373 28.3484 8.72904 27.8065 8.18714C27.2646 7.64524 25.2563 8.77494 23.3209 10.7104C21.3854 12.6459 20.2557 14.6541 20.7976 15.196C21.3395 15.7379 23.3478 14.6082 25.2832 12.6728Z" fill="#5293D7"/>
</svg>
