<svg width="40" height="40" viewBox="0 0 40 40" fill="none" xmlns="http://www.w3.org/2000/svg">
<path d="M33.3333 16.6663C33.3333 24.988 24.1016 33.6547 21.0016 36.3313C20.7128 36.5485 20.3613 36.6659 20 36.6659C19.6386 36.6659 19.2871 36.5485 18.9983 36.3313C15.8983 33.6547 6.66663 24.988 6.66663 16.6663C6.66663 13.1301 8.07138 9.73874 10.5719 7.23825C13.0724 4.73777 16.4637 3.33301 20 3.33301C23.5362 3.33301 26.9276 4.73777 29.428 7.23825C31.9285 9.73874 33.3333 13.1301 33.3333 16.6663Z" stroke="black" stroke-width="3.79688" stroke-linecap="round" stroke-linejoin="round"/>
<path d="M20 21.667C22.7614 21.667 25 19.4284 25 16.667C25 13.9056 22.7614 11.667 20 11.667C17.2386 11.667 15 13.9056 15 16.667C15 19.4284 17.2386 21.667 20 21.667Z" stroke="black" stroke-width="3.79688" stroke-linecap="round" stroke-linejoin="round"/>
</svg>
